<svg width="38" height="30" viewBox="0 0 38 30" fill="none" xmlns="http://www.w3.org/2000/svg">
<path d="M5.08935 7.59635C6.0735 7.04821 7.55706 7.15334 8.44071 7.73485L7.42724 6.56098C6.61165 5.63406 6.90375 4.63123 8.06799 3.98047C9.23222 3.33221 12.5312 5.07508 12.5312 5.07508C11.7083 4.13899 11.8622 2.9526 13.0369 2.296C14.2116 1.64191 15.8323 1.868 16.6553 2.80576L27.5647 15.0868L26.1743 25.8285L14.5707 22.4562L4.44965 10.4981C3.6194 9.55614 3.90627 8.25712 5.08935 7.59635Z" fill="#EF9645"/>
<path d="M2.82158 14.4285C2.82158 14.4285 1.6364 13.0519 3.36495 12.1083C5.09141 11.1647 6.27554 12.5405 6.27554 12.5405L11.7732 18.9296C11.9627 18.6776 12.17 18.429 12.4014 18.1837L4.77104 9.31753C4.77104 9.31753 3.58691 7.94176 5.31442 6.99816C7.04088 6.05456 8.225 7.43033 8.225 7.43033L15.402 15.7709C15.669 15.5974 15.9422 15.423 16.2239 15.252L7.90358 5.58151C7.90358 5.58151 6.71946 4.20574 8.44696 3.26214C10.1734 2.31853 11.3575 3.69431 11.3575 3.69431L19.6778 13.3631C19.9836 13.2137 20.2861 13.0844 20.5898 12.9476L12.8128 3.91039C12.8128 3.91039 11.6287 2.53462 13.3552 1.59102C15.0816 0.647419 16.2658 2.02319 16.2658 2.02319L24.4887 11.5793L25.7388 13.0327C20.5583 15.8643 20.0652 21.1914 23.025 24.6312C23.6166 25.3195 24.4803 24.8482 24.4803 24.8482C20.9279 20.7192 22.0126 16.0796 27.1941 13.2488L25.6665 7.15668C25.6665 7.15668 25.0959 5.55147 27.1093 5.09594C29.1236 4.64124 29.6953 6.24645 29.6953 6.24645L31.4594 10.4213C32.1588 12.0766 32.9032 13.726 33.8884 15.2862C36.6702 19.6913 35.0087 25.166 29.7633 28.0335C24.0416 31.1597 16.2197 29.9975 12.2956 25.4388L2.82158 14.4285Z" fill="#FFDC5D"/>
<path d="M12.5636 26.6978C8.37574 26.6978 4.14387 23.3256 4.14387 19.9883C4.14387 19.527 3.71985 19.154 3.14087 19.154C2.5619 19.154 2.04993 19.527 2.04993 19.9883C2.04993 24.9942 6.28179 28.3664 12.5636 28.3664C13.1426 28.3664 13.6106 27.9585 13.6106 27.4971C13.6106 27.0357 13.1426 26.6978 12.5636 26.6978Z" fill="#5DADEC"/>
<path d="M7.32881 28.3314C4.18789 28.3314 2.09395 26.6628 2.09395 24.1599C2.09395 23.6985 1.62595 23.3256 1.04697 23.3256C0.467997 23.3256 0 23.6985 0 24.1599C0 27.4971 3.14092 30 7.32881 30C7.90779 30 8.37578 29.6271 8.37578 29.1657C8.37578 28.7043 7.90779 28.3314 7.32881 28.3314ZM25.1274 1.63358C24.5494 1.63358 24.0804 2.00734 24.0804 2.46788C24.0804 2.92842 24.5494 3.30219 25.1274 3.30219C29.3152 3.30219 33.5031 6.29652 33.5031 9.97664C33.5031 10.4372 33.9722 10.8109 34.5501 10.8109C35.128 10.8109 35.5971 10.4372 35.5971 9.97664C35.5971 5.37628 31.4092 1.63358 25.1274 1.63358Z" fill="#5DADEC"/>
<path d="M30.3622 0C29.7843 0 29.3152 0.338729 29.3152 0.799266C29.3152 1.2598 29.7843 1.66861 30.3622 1.66861C33.5031 1.66861 35.5531 3.52495 35.5531 5.80511C35.5531 6.26564 36.0651 6.63941 36.6441 6.63941C37.223 6.63941 37.6471 6.26564 37.6471 5.80511C37.6471 2.60387 34.5501 0 30.3622 0Z" fill="#5DADEC"/>
</svg>
